HIERARCHY
ROOT Hips
{
	OFFSET 0.00000 0.00000 0.00000
	CHANNELS 6 Xposition Yposition Zposition Zrotation Yrotation Xrotation 
	JOINT LHipJoint
	{
		OFFSET 0 0 0
		CHANNELS 3 Zrotation Yrotation Xrotation
		JOINT LeftHip
		{
			OFFSET 1.26600 -1.82114 0.91038
			CHANNELS 3 Zrotation Yrotation Xrotation
			JOINT LeftKnee
			{
				OFFSET 2.50076 -6.87080 0.00000
				CHANNELS 3 Zrotation Yrotation Xrotation
				JOINT LeftAnkle
				{
					OFFSET 2.57364 -7.07102 0.00000
					CHANNELS 3 Zrotation Yrotation Xrotation
					JOINT LeftToe
					{
						OFFSET 0.13572 -0.37290 1.97004
						CHANNELS 3 Zrotation Yrotation Xrotation
						End Site
						{
							OFFSET 0.00000 -0.00000 1.01383
						}
					}
				}
			}
		}
	}
	JOINT RHipJoint
	{
		OFFSET 0 0 0
		CHANNELS 3 Zrotation Yrotation Xrotation
		JOINT RightHip
		{
			OFFSET -1.20803 -1.82114 0.91038
			CHANNELS 3 Zrotation Yrotation Xrotation
			JOINT RightKnee
			{
				OFFSET -2.54916 -7.00377 0.00000
				CHANNELS 3 Zrotation Yrotation Xrotation
				JOINT RightAnkle
				{
					OFFSET -2.56374 -7.04382 0.00000
					CHANNELS 3 Zrotation Yrotation Xrotation
					JOINT RightToe
					{
						OFFSET -0.23520 -0.64621 2.09921
						CHANNELS 3 Zrotation Yrotation Xrotation
						End Site
						{
							OFFSET -0.00000 -0.00000 1.10065
						}
					}
				}
			}
		}
	}
	JOINT lowerback
	{
		OFFSET 0 0 0
		CHANNELS 3 Zrotation Yrotation Xrotation
		JOINT Chest
		{
			OFFSET 0.05492 2.10797 -0.12074
			CHANNELS 3 Zrotation Yrotation Xrotation
			JOINT Chest2
			{
				OFFSET 0.04577 2.11592 -0.04483
				CHANNELS 3 Zrotation Yrotation Xrotation
				JOINT lowerneck
				{
					OFFSET 0 0 0
					CHANNELS 3 Zrotation Yrotation Xrotation
					JOINT Neck
					{
						OFFSET -0.10759 1.80167 0.15770
						CHANNELS 3 Zrotation Yrotation Xrotation
						JOINT Head
						{
							OFFSET 0.09237 1.77509 -0.40848
							CHANNELS 3 Zrotation Yrotation Xrotation
							End Site
							{
								OFFSET 0.03805 1.84093 -0.15754
							}
						}
					}
				}
				JOINT LeftCollar
				{
					OFFSET 0 0 0
					CHANNELS 3 Zrotation Yrotation Xrotation
					JOINT LeftShoulder
					{
						OFFSET 3.42372 1.09575 -0.28209
CHANNELS 3 Zrotation Xrotation Yrotation
						JOINT LeftElbow
						{
OFFSET 0 -4.956810 0.000000
CHANNELS 3 Zrotation Xrotation Yrotation
							JOINT LeftWrist
							{
OFFSET 0 -3.409150 0.000000
CHANNELS 3 Zrotation Xrotation Yrotation
								JOINT lhand
								{
									OFFSET 0 0 0
CHANNELS 3 Zrotation Xrotation Yrotation
									JOINT LFingers
									{
OFFSET 0 -0.616400 0.000000
CHANNELS 3 Zrotation Xrotation Yrotation
										End Site
										{
OFFSET 0 -0.496960 0.000000
										}
									}
								}
								JOINT LThumb
								{
OFFSET 0 0.000000 0.000000
CHANNELS 3 Zrotation Xrotation Yrotation
									End Site
									{
OFFSET 0 -0.504550 0.504550
									}
								}
							}
						}
					}
				}
				JOINT RightCollar
				{
					OFFSET 0 0 0
					CHANNELS 3 Zrotation Yrotation Xrotation
					JOINT RightShoulder
					{
						OFFSET -3.24731 1.15872 -0.32221
CHANNELS 3 Zrotation Xrotation Yrotation
						JOINT RightElbow
						{
OFFSET 0 -5.352000 0.000000
CHANNELS 3 Zrotation Xrotation Yrotation
							JOINT RightWrist
							{
OFFSET 0 -3.437210 -0.000000
CHANNELS 3 Zrotation Xrotation Yrotation
								JOINT rhand
								{
									OFFSET 0 0 0
CHANNELS 3 Zrotation Xrotation Yrotation
									JOINT RFingers
									{
OFFSET 0 -0.720090 0.000000
CHANNELS 3 Zrotation Xrotation Yrotation
										End Site
										{
OFFSET 0 -0.580560 0.000000
										}
									}
								}
								JOINT RThumb
								{
OFFSET 0 0.000000 0.000000
CHANNELS 3 Zrotation Xrotation Yrotation
									End Site
									{
OFFSET 0 -0.589420 0.589420
									}
								}
							}
						}
					}
				}
			}
		}
	}
}
MOTION
Frames: 13
Frame Time: 0.008333333333333333
-3.517700 17.287000 -1.535500 -6.264500 4.883100 -1.000400 0.000000 0.000000 0.000000 -9.184700 -6.738900 -16.177300 7.487800 15.729300 50.696000 -0.001700 -11.236500 -7.856100 0.185900 -2.777000 -7.658500 0.000000 0.000000 0.000000 30.324600 -3.121700 -5.623800 -2.501900 -9.841300 28.464400 -1.707400 2.615600 -24.014800 -0.175200 -2.696600 7.435200 5.667500 -0.125100 4.758500 3.311800 0.045600 3.233100 0.232200 0.080400 0.670200 -7.978600 1.635500 -11.333200 -0.216900 5.212600 40.986400 2.213200 0.953000 16.530300 0.000000 0.000000 0.000000 -0.097400 4.920000 -21.507200 23.507300 -34.638900 7.424600 20.259100 -0.757500 -26.060500 0.000000 0.000000 0.000000 -7.125000 0.000000 0.000000 -10.663900 57.193300 3.210000 0.000000 0.000000 0.000000 -3.582700 4.020900 17.974800 -16.291400 -25.914100 -3.772400 -21.110900 -17.012200 -13.458100 0.000000 0.000000 0.000000 7.125000 0.000000 -0.000000 4.293600 15.619700 2.987500
-3.622533 17.300090 -1.427118 -8.245177 5.511366 -1.920915 0.000000 0.000000 0.000000 -4.820631 -8.079473 -23.645887 10.452279 17.655948 60.989003 -0.442411 -12.046927 1.353542 0.414368 -4.109794 -11.388906 0.000000 0.000000 0.000000 32.926220 -4.544834 -3.230416 -1.969684 -8.802494 25.179409 -1.511676 2.101003 -22.664145 -0.230956 -3.093206 8.538397 7.946654 0.215126 5.934037 3.949757 0.667788 3.896901 -0.398671 0.436687 0.763075 -7.772199 1.107961 -11.177119 -0.547426 4.426724 40.143017 1.890465 0.667807 16.099540 0.000000 0.000000 0.000000 -0.182517 4.391395 -21.413804 23.017300 -34.107688 7.147999 20.118109 0.102149 -24.180622 0.000000 0.000000 0.000000 -7.125000 0.000000 0.000000 -9.936410 55.260706 2.521383 0.000000 0.000000 0.000000 -3.876104 2.016280 11.812423 -13.131980 -21.479542 -2.501910 -21.151939 -14.993968 -13.850960 0.000000 0.000000 0.000000 7.125000 0.000000 0.000000 4.282220 15.199229 3.018268
-3.680066 17.318366 -1.216498 -8.766306 4.531830 -2.282992 0.000000 0.000000 0.000000 -3.402121 -6.209958 -29.042288 11.099605 17.983360 63.104416 -0.493150 -14.367236 -2.609986 0.495595 -4.511076 -12.519477 0.000000 0.000000 0.000000 33.652553 -5.192610 -0.855231 -1.617355 -8.018755 22.771052 -1.371079 2.497749 -21.460785 -0.334919 -3.719176 10.288005 8.489847 0.912190 6.451115 4.273659 1.622767 4.594268 -0.404184 0.949674 1.278779 -7.691069 0.882626 -11.692488 -0.519733 4.126742 40.141664 1.853567 0.559690 16.240122 0.000000 0.000000 0.000000 -0.977354 4.245747 -19.911050 21.419229 -32.314167 6.272692 21.890518 -0.505394 -23.403329 0.000000 0.000000 0.000000 -7.125000 0.000000 0.000000 -7.778221 54.817869 1.884077 0.000000 0.000000 0.000000 -4.508926 0.689992 8.143761 -11.158815 -18.531240 -1.826046 -21.945111 -11.286663 -13.978696 0.000000 0.000000 0.000000 7.125000 0.000000 0.000000 3.745647 14.979287 2.656320
-3.694247 17.369385 -0.936206 -7.362944 4.562131 -1.380007 0.000000 0.000000 0.000000 -5.659620 -4.880733 -32.992476 9.133152 16.891557 56.547858 -0.064773 -9.622183 -5.558038 0.208040 -2.936522 -8.102033 0.000000 0.000000 0.000000 32.250528 -5.467533 0.266691 -1.372234 -7.413304 20.945800 -1.334022 2.248877 -21.214555 -0.300031 -3.515517 9.718010 7.720719 0.997899 6.428371 3.671751 1.707876 4.437741 -0.612024 0.975084 1.121542 -7.885790 1.106610 -11.746883 0.037446 4.331581 40.375264 2.171686 0.682641 16.333724 0.000000 0.000000 0.000000 -1.656407 5.492966 -17.071969 18.848963 -29.229717 4.957271 23.046728 -1.113023 -21.948507 0.000000 0.000000 0.000000 -7.125000 0.000000 0.000000 -6.061627 53.529368 1.273895 0.000000 0.000000 0.000000 -4.427569 0.736380 8.554500 -11.031427 -18.336452 -1.785768 -22.359113 -10.156964 -14.365373 0.000000 0.000000 0.000000 7.125000 0.000000 0.000000 3.483759 14.520990 2.503803
-3.679351 17.359032 -0.584791 -7.651165 5.003540 -0.909630 0.000000 0.000000 0.000000 -6.512921 -4.777051 -34.212783 5.897692 14.328158 44.569289 0.167539 -5.093064 -7.593299 0.894797 -6.027534 -16.864908 0.000000 0.000000 0.000000 32.640302 -5.960885 2.016178 -1.112554 -6.701128 18.833025 -1.318483 1.421770 -21.292129 -0.093934 -1.976068 5.439509 8.443191 0.824488 6.384533 3.587452 1.507803 4.445771 -1.086065 0.893727 1.168929 -8.165998 1.297450 -12.125877 0.569917 4.528704 40.302021 2.492794 0.793502 16.342266 0.000000 0.000000 0.000000 -2.188315 6.585121 -15.470106 15.753610 -25.185375 3.540475 23.216661 0.907778 -22.069245 0.000000 0.000000 0.000000 -7.125000 0.000000 0.000000 -5.927670 53.688013 1.269882 0.000000 0.000000 0.000000 -4.417378 1.994467 13.648132 -12.857583 -21.078161 -2.401835 -22.126661 -14.852643 -14.097879 0.000000 0.000000 0.000000 7.125000 0.000000 0.000000 3.627760 14.832247 2.583495
-3.618430 17.331736 -0.153561 -7.836894 4.676898 0.277892 0.000000 0.000000 0.000000 -6.507623 -5.710923 -34.295633 3.150161 10.932156 32.053737 0.243342 -4.650017 -8.866245 0.488825 -4.363693 -12.122781 0.000000 0.000000 0.000000 32.626812 -6.183029 3.001975 -0.962487 -6.246499 17.501426 -1.334247 1.774461 -21.330049 -0.086455 -1.894720 5.214951 8.792452 1.120134 5.627631 3.562655 1.853284 4.072197 -1.306916 1.066534 1.243321 -7.803753 1.177847 -11.515561 -0.127751 4.425694 39.902020 2.084363 0.738533 16.029577 0.000000 0.000000 0.000000 -2.932080 7.611983 -12.944385 12.689998 -20.830840 2.342236 20.565553 6.857808 -22.879534 0.000000 0.000000 0.000000 -7.125000 0.000000 0.000000 -8.940728 54.019831 1.996445 0.000000 0.000000 0.000000 -4.595022 3.170430 17.016233 -14.628063 -23.625433 -3.075325 -21.845612 -16.984988 -13.852682 0.000000 0.000000 0.000000 7.125000 0.000000 0.000000 3.807453 15.124171 2.688487
-3.525300 17.260835 0.360256 -7.875046 3.686351 1.223549 0.000000 0.000000 0.000000 -5.190999 -8.607785 -34.277286 2.051668 8.972618 25.709946 0.430800 -4.758273 -11.681308 0.277739 -3.388815 -9.363256 0.000000 0.000000 0.000000 32.183518 -6.523605 4.870236 -0.789669 -5.672470 15.837167 -1.375517 2.283432 -21.544899 -0.009928 -0.619258 1.701779 8.324951 1.374889 4.734231 3.737446 2.076910 3.927332 -0.853125 1.172727 1.582475 -7.805029 1.354056 -11.763792 -0.394141 4.850023 40.241941 2.048135 0.857245 16.266574 0.000000 0.000000 0.000000 -4.323791 8.605787 -10.296817 11.036472 -18.344044 1.787481 17.022980 10.280431 -25.088109 0.000000 0.000000 0.000000 -7.125000 0.000000 0.000000 -13.550346 55.551901 3.555978 0.000000 0.000000 0.000000 -5.096494 2.498618 18.438780 -14.981962 -24.120910 -3.218570 -21.686191 -15.971877 -13.713549 0.000000 0.000000 0.000000 7.125000 0.000000 0.000000 3.910129 15.288961 2.747063
-3.401461 17.158666 0.911527 -8.611270 2.975115 1.366323 0.000000 0.000000 0.000000 -5.036401 -7.727209 -33.899867 2.008846 8.884415 25.434356 0.364711 -4.598155 -10.757090 0.331368 -3.697942 -10.228497 0.000000 0.000000 0.000000 32.272068 -6.810243 7.190811 -0.747499 -5.522544 15.405147 -1.489614 3.213309 -22.254672 -0.022352 -0.963869 2.649453 8.696045 1.513160 4.591272 3.844273 2.259886 3.844565 -0.947754 1.268574 1.603867 -7.498590 1.404331 -11.635878 -0.451181 4.854292 40.452777 1.970649 0.886519 16.355128 0.000000 0.000000 0.000000 -5.235419 9.911175 -9.686546 10.657162 -17.760840 1.669866 15.419604 11.521223 -24.927552 0.000000 0.000000 0.000000 -7.125000 0.000000 0.000000 -15.099904 55.078128 3.800787 0.000000 0.000000 0.000000 -4.648008 1.166450 17.244722 -14.258560 -23.103147 -2.928820 -22.247053 -15.382455 -14.218795 0.000000 0.000000 0.000000 7.125000 0.000000 0.000000 3.551950 14.689914 2.540229
-3.202775 17.133676 1.568192 -9.214560 1.754913 1.376125 0.000000 0.000000 0.000000 -4.857520 -7.150779 -32.990153 2.311795 9.487297 27.331880 0.125696 -3.682298 -6.420595 0.277118 -3.386102 -9.355658 0.000000 0.000000 0.000000 31.851583 -6.706684 12.055995 -0.421946 -4.168970 11.552700 -1.170829 2.929175 -19.690379 -0.010999 0.677746 -1.862430 9.557679 1.986432 4.418023 3.662176 2.910204 3.612939 -1.619280 1.604421 1.572688 -7.135262 1.247337 -11.312175 -0.357282 4.472284 40.891685 1.888230 0.781713 16.529709 0.000000 0.000000 0.000000 -5.259910 11.085261 -11.889947 11.025739 -18.327667 1.783977 15.698398 10.691403 -23.874827 0.000000 0.000000 0.000000 -7.125000 0.000000 0.000000 -14.295505 54.099620 3.248032 0.000000 0.000000 0.000000 -3.432446 0.435571 14.381409 -13.566253 -22.111230 -2.662688 -22.198660 -14.901812 -14.300238 0.000000 0.000000 0.000000 7.125000 0.000000 0.000000 3.589223 14.608433 2.573047
-2.966242 17.251893 2.296885 -8.095793 0.787020 1.988717 0.000000 0.000000 0.000000 -6.950507 -6.113636 -31.429054 2.384115 9.623930 27.767541 0.006997 0.919265 -2.204222 0.029566 -1.087683 -2.990263 0.000000 0.000000 0.000000 29.535564 -6.292129 13.737752 -0.506041 -4.560155 12.658099 -0.822548 2.271308 -16.513905 -0.125093 2.279013 -6.277558 8.796429 2.334250 3.651914 3.063316 3.286979 3.277452 -1.801931 1.779337 1.673721 -7.478801 1.415428 -11.585606 -0.214834 4.877168 41.655630 2.101071 0.876041 16.993802 0.000000 0.000000 0.000000 -5.434320 10.740107 -10.998665 11.818800 -19.532315 2.041375 15.183871 9.713951 -25.510917 0.000000 0.000000 0.000000 -7.125000 0.000000 0.000000 -15.646978 55.600064 4.144082 0.000000 0.000000 0.000000 -2.490064 0.012583 13.435228 -13.003613 -21.292527 -2.454572 -21.932062 -14.706574 -14.410019 0.000000 0.000000 0.000000 7.125000 0.000000 0.000000 3.776545 14.521301 2.714944
-2.710216 17.392147 3.050943 -7.257524 -0.053019 1.849345 0.000000 0.000000 0.000000 -8.911944 -4.688178 -28.459980 2.371739 9.600730 27.693443 0.006763 -1.599659 -1.722807 0.129653 2.275530 6.269658 0.000000 0.000000 0.000000 27.307135 -5.387344 12.383325 -1.235683 -7.043281 19.846197 -0.447139 2.621736 -11.993650 -0.371747 3.916210 -10.840983 8.144606 2.717209 3.497976 2.656266 3.786214 3.001918 -1.869808 2.008328 1.501276 -7.507603 1.412192 -11.264756 -0.416122 4.940935 41.632087 2.018616 0.878647 16.908871 0.000000 0.000000 0.000000 -5.028417 10.446601 -12.774470 13.438067 -21.925419 2.614760 17.346912 7.009822 -23.920491 0.000000 0.000000 0.000000 -7.125000 0.000000 0.000000 -12.659819 54.456045 2.980305 0.000000 0.000000 0.000000 -2.018401 0.893856 15.033534 -13.709317 -22.317538 -2.716761 -21.450430 -15.092251 -13.884790 0.000000 0.000000 0.000000 7.125000 0.000000 0.000000 4.079337 15.132060 2.880606
-2.478175 17.545112 3.801731 -6.065559 -0.416787 1.071680 0.000000 0.000000 0.000000 -11.771496 -2.211054 -24.770184 2.241430 9.351759 26.901970 -0.009193 -3.950554 -2.366754 0.373548 3.924286 10.863831 0.000000 0.000000 0.000000 24.210316 -5.671450 7.594963 -3.088507 -10.832691 31.722160 -0.021418 2.432550 -2.821721 -0.087126 1.887586 -5.195574 6.765623 2.724238 3.545050 2.254043 3.774671 2.967265 -1.531370 1.979413 1.366223 -7.361940 1.528049 -11.079155 -0.585814 5.106409 41.430066 1.933902 0.955913 16.753116 0.000000 0.000000 0.000000 -3.684097 10.125257 -16.564149 15.945641 -25.446527 3.622786 16.106227 2.909025 -23.964717 0.000000 0.000000 0.000000 -7.125000 0.000000 0.000000 -13.929277 54.264982 3.218842 0.000000 0.000000 0.000000 -1.873359 1.075514 16.935887 -14.757163 -23.806584 -3.127351 -21.285633 -13.453030 -13.669043 0.000000 0.000000 0.000000 7.125000 0.000000 0.000000 4.182801 15.378073 2.931501
-2.298112 17.654784 4.451115 -4.177680 -0.146607 0.349297 0.000000 0.000000 0.000000 -15.239019 0.997671 -21.665241 1.942844 8.745874 25.003743 -0.071271 -6.758811 -2.681425 0.071905 1.725464 4.747706 0.000000 0.000000 0.000000 20.721552 -4.916882 0.437030 -6.254167 -14.669331 45.991702 -0.089380 0.789334 5.993800 -0.148349 -2.481963 6.839575 4.178813 2.250197 4.108802 1.895604 3.124879 2.829160 -0.493124 1.604039 0.727179 -7.284872 1.927779 -11.349761 -0.780401 5.794666 41.450712 1.949580 1.211490 16.816545 0.000000 0.000000 0.000000 -2.058882 9.201014 -18.870546 18.984399 -29.399178 5.023222 17.292291 1.902940 -23.238817 0.000000 0.000000 0.000000 -7.125000 0.000000 0.000000 -12.404845 53.766957 2.706302 0.000000 0.000000 0.000000 -2.135320 0.518082 19.310064 -16.358271 -26.004004 -3.801717 -21.785934 -14.037722 -12.094151 0.000000 0.000000 0.000000 7.125000 0.000000 0.000000 3.772784 17.003653 2.510177
